# xmcd CD database file
#
# Track frame offsets:
#	150
#	15803
#	28372
#	41880
#	56398
#	65459
#	80385
#	98453
#
# Disc length: 1506 seconds
#
# Revision: 0
# Processed by: cddbd v1.5.2PL0 Copyright (c) Steve Scherf et al.
# Submitted via: CDex 1.70beta2
#
DISCID=5705e008
DTITLE=Miles High Jazz Orchestra - Demo - evaluation mix
DYEAR=2009
DGENRE=Jazz
TTITLE0=Copacabana
TTITLE1=The Lady is a Tramp
TTITLE2=Take the "A" Train
TTITLE3=Fever
TTITLE4=Caravan
TTITLE5=Beethoven's 5th Samba
TTITLE6=My Way
TTITLE7=Beyond the Sea
EXTD=YEAR: 2009
EXTT0=
EXTT1=
EXTT2=
EXTT3=
EXTT4=
EXTT5=
EXTT6=
EXTT7=
PLAYORDER=
